PathFileType	4	(X/Y/Z)	C:/Users/opensim2020/Desktop/walking_exp_matlab/subject06_walking14_straight_03.trc	
DataRate	CameraRate	NumFrames	NumMarkers	Units	OrigDataRate	OrigDataStartFrame	OrigNumFrames	
100.00	100.00	8	45	mm	100.00	2237	233	
Frame#	Time	LFHD			RFHD			LBHD			RBHD			C7			T10			CLAV			STRN			RBAK			LSHO			LUPA			LELB			LFRM			LWRA			LWRB			LFIN			RSHO			RUPA			RELB			RFRM			RWRA			RWRB			RFIN			LASI			RASI			LPSI			RPSI			LTHI			LKNE			LTIB			LANK			LHEE			LTOE			RTHI			RKNE			RTIB			RANK			RHEE			RTOE			*39			*40			*41			*42			*43			*44			
		X1	Y1	Z1	X2	Y2	Z2	X3	Y3	Z3	X4	Y4	Z4	X5	Y5	Z5	X6	Y6	Z6	X7	Y7	Z7	X8	Y8	Z8	X9	Y9	Z9	X10	Y10	Z10	X11	Y11	Z11	X12	Y12	Z12	X13	Y13	Z13	X14	Y14	Z14	X15	Y15	Z15	X16	Y16	Z16	X17	Y17	Z17	X18	Y18	Z18	X19	Y19	Z19	X20	Y20	Z20	X21	Y21	Z21	X22	Y22	Z22	X23	Y23	Z23	X24	Y24	Z24	X25	Y25	Z25	X26	Y26	Z26	X27	Y27	Z27	X28	Y28	Z28	X29	Y29	Z29	X30	Y30	Z30	X31	Y31	Z31	X32	Y32	Z32	X33	Y33	Z33	X34	Y34	Z34	X35	Y35	Z35	X36	Y36	Z36	X37	Y37	Z37	X38	Y38	Z38	X39	Y39	Z39	X40	Y40	Z40	X41	Y41	Z41	X42	Y42	Z42	X43	Y43	Z43	X44	Y44	Z44	X45	Y45	Z45	

30	0.290	1325.55237	-667.33691	1655.62207	1457.12878	-670.11102	1646.35925	1323.17822	-801.34442	1602.02576	1452.69897	-802.37299	1598.22839	1377.30823	-805.31714	1447.65637	1391.95239	-858.69147	1122.11499	1388.32776	-699.44141	1364.93994	1385.77649	-670.01361	1188.15454	1449.47083	-891.02820	1284.18518	1222.17859	-739.45233	1399.80005	1146.21667	-709.92310	1201.83411	1130.04333	-688.73175	1090.96802	1104.68140	-600.37372	970.96100	1137.94617	-485.22803	908.95874	1111.24353	-537.34070	869.19031	1101.30176	-459.59396	825.01868	1544.95264	-753.99750	1401.43335	1628.91504	-841.71838	1220.37720	1638.61072	-864.22107	1098.61707	1653.65295	-885.63586	979.44727	1620.67163	-872.01526	829.25317	1660.35364	-923.68951	846.03278	1658.63037	-914.11670	761.58826	1293.09009	-682.64807	952.59363	1513.59192	-690.01770	965.41205	1320.22131	-840.79205	986.56104	1488.60657	-840.35828	987.44781	1242.52808	-778.07275	646.40729	1264.30579	-807.41956	483.91309	1270.98474	-893.20618	239.06169	1320.66687	-931.52271	71.63879	1365.29761	-975.20795	61.07102	1319.20935	-790.73053	39.20757	1585.83301	-663.94025	643.49323	1563.97449	-608.00549	530.38910	1561.63806	-624.91949	268.60025	1522.17908	-615.84680	81.94892	1470.55286	-645.36755	56.92515	1546.92322	-466.00143	48.25949	1381.99121	-768.64050	1695.64990															 
31	0.300	1326.60889	-657.84515	1654.29846	1458.14233	-660.87402	1644.87634	1323.95276	-791.88788	1600.66748	1453.45972	-793.13971	1596.73572	1377.94849	-796.18347	1446.53149	1392.19653	-849.43359	1120.66882	1389.14221	-690.05872	1363.55383	1386.33411	-660.66681	1186.72266	1449.36194	-881.82916	1282.67969	1222.87927	-729.79828	1398.59998	1146.99255	-698.74707	1201.03210	1130.64050	-676.44092	1090.54492	1105.39966	-585.08112	972.75568	1138.41846	-468.31894	914.37524	1112.18811	-519.17902	872.88654	1101.68054	-440.16867	831.34180	1545.61646	-745.20782	1399.87378	1628.86401	-834.42328	1219.30603	1638.57349	-857.58044	1097.63135	1653.72986	-880.03900	978.69391	1621.28406	-867.72198	828.25391	1660.56372	-919.38184	845.65582	1659.18982	-910.74298	761.16547	1293.48767	-673.61298	951.08997	1513.87952	-680.71173	963.92139	1320.74792	-831.74200	985.13531	1489.09070	-830.94775	986.04718	1243.09631	-770.73022	645.13715	1264.75342	-801.77936	482.97754	1271.09534	-890.75940	239.06042	1320.65869	-931.08563	72.03693	1365.35730	-974.86548	61.78273	1319.26025	-790.61346	39.15271	1586.04089	-657.12164	640.89478	1564.02271	-600.19958	528.27728	1562.52625	-605.12073	266.61185	1523.58130	-586.81525	80.50948	1472.23425	-615.43427	54.55689	1546.27258	-435.14252	51.23258	1382.92676	-759.26788	1694.20508															 
32	0.310	1327.66028	-648.33289	1652.91003	1459.22278	-651.56573	1643.32849	1324.79077	-782.37097	1599.20227	1454.30298	-783.82684	1595.16516	1378.59351	-787.02783	1445.00513	1392.49036	-840.05005	1119.13245	1389.95679	-680.51532	1361.99731	1387.02576	-651.20831	1185.22803	1449.45288	-872.50513	1281.06299	1223.59338	-720.06940	1397.35205	1147.84314	-687.57599	1200.09509	1131.53015	-664.23767	1089.85425	1106.17407	-570.33466	974.47314	1139.12390	-451.96185	919.65509	1112.92346	-501.34164	876.44183	1102.25610	-421.22879	837.55060	1546.32837	-736.38049	1398.23706	1628.91577	-826.81000	1218.10449	1638.66479	-850.64587	1096.60730	1653.97876	-874.15637	977.84644	1621.94128	-862.89105	827.18500	1660.91772	-914.70050	845.20850	1659.80420	-906.87695	760.58942	1293.77527	-664.53857	949.46704	1514.17859	-671.27264	962.43073	1321.20581	-822.67334	983.65369	1489.62122	-820.89197	984.45587	1243.52209	-763.36420	643.91187	1265.06677	-796.21124	482.03046	1271.31519	-888.25006	239.13550	1320.57190	-930.67743	72.49747	1365.08594	-974.81708	62.59330	1319.22766	-790.51697	39.10264	1586.27136	-650.06183	638.40857	1563.94324	-592.40796	525.98279	1563.13000	-586.22772	264.93735	1524.76782	-559.02673	79.69941	1473.76990	-586.77789	52.68230	1545.36108	-405.62811	55.95324	1383.86047	-749.83972	1692.72656															 
33	0.320	1328.78162	-638.81268	1651.39819	1460.32446	-642.21497	1641.76440	1325.68640	-772.78418	1597.65552	1455.19080	-774.49243	1593.55493	1379.21008	-776.93018	1443.23865	1392.90662	-830.54486	1117.52490	1390.86829	-670.98187	1360.47351	1387.73499	-641.54291	1183.67786	1449.65393	-863.24078	1279.42578	1224.45313	-710.18329	1395.99280	1148.73083	-676.45612	1199.08533	1132.37952	-652.28241	1089.12036	1106.95996	-555.92706	975.96075	1139.98828	-435.98853	924.61816	1113.91174	-484.10834	880.12109	1102.92139	-402.79443	843.67126	1547.12549	-727.38220	1396.49988	1629.10193	-818.89374	1216.77502	1638.91418	-843.40363	1095.47803	1654.35461	-867.83868	976.95288	1622.78296	-857.60992	826.00800	1661.40564	-909.52283	844.64813	1660.52429	-902.50977	759.90179	1294.15454	-655.33099	947.86346	1514.50073	-661.65680	960.92584	1321.79761	-813.54333	982.04846	1490.27600	-811.22076	982.75317	1243.76953	-756.16876	642.69763	1265.36218	-790.52789	481.08432	1271.62537	-885.41565	239.30818	1320.25916	-930.11029	73.00964	1364.79517	-974.61328	63.51080	1319.16675	-790.45673	39.04784	1586.73914	-642.68445	635.94763	1564.02710	-584.37799	523.56299	1563.61926	-568.22821	263.56412	1525.68201	-532.72815	79.38589	1475.02576	-559.32819	50.72614	1544.77539	-378.01691	62.69822	1384.89612	-740.46399	1691.16357															 
34	0.330	1329.96167	-629.22388	1649.84912	1461.55676	-632.86603	1640.18164	1326.64697	-763.14917	1596.03137	1456.20190	-765.06451	1591.88794	1380.08435	-767.21667	1441.68530	1393.52075	-820.95990	1115.87305	1391.89111	-661.25751	1358.85925	1388.44446	-631.88464	1182.05505	1449.99231	-853.47961	1277.58899	1225.39746	-700.27850	1394.51440	1149.63733	-665.38452	1197.91699	1133.27356	-640.42651	1088.21973	1107.75525	-541.73584	977.32574	1141.17529	-420.50052	929.39746	1114.88855	-467.44461	883.62128	1103.97351	-384.83945	849.56299	1548.05823	-718.23102	1394.71814	1629.50964	-810.67987	1215.39551	1639.32117	-835.78534	1094.22498	1654.92920	-861.10046	975.90350	1623.90466	-851.77454	824.81635	1662.08630	-903.76025	843.91290	1661.39795	-897.47888	759.08362	1294.65320	-645.88458	946.20996	1514.72595	-651.72693	959.20886	1322.41492	-804.33667	980.27197	1491.03674	-802.07379	981.11090	1243.87769	-749.00897	641.51941	1265.54346	-784.70642	480.09909	1271.59558	-882.70862	239.35060	1320.23389	-929.78400	73.69127	1364.41711	-974.29053	64.64224	1319.15637	-790.38055	38.97490	1587.60535	-634.82556	633.47241	1564.26379	-575.95288	521.27368	1564.01563	-551.12067	262.33710	1526.28687	-507.70068	79.60137	1475.97742	-533.07251	49.17668	1544.20251	-352.26740	70.27571	1385.94971	-730.98901	1689.55554															 
35	0.340	1331.19202	-619.68799	1648.32996	1462.79614	-623.38092	1638.63831	1327.76929	-753.55225	1594.39050	1457.27551	-755.55981	1590.22583	1381.15186	-757.75177	1440.06311	1394.16931	-811.30273	1114.21423	1393.02405	-651.35254	1357.35168	1389.25647	-621.98993	1180.48413	1450.54822	-843.85834	1275.80005	1226.38928	-690.33508	1393.04578	1150.64246	-654.48859	1196.66309	1134.32349	-628.77045	1087.17883	1108.67822	-527.89404	978.53979	1142.48340	-405.43524	933.80475	1115.94971	-450.95483	886.72687	1105.10754	-367.15305	855.23346	1549.07300	-708.84399	1392.90833	1630.06006	-802.11914	1213.86877	1639.89893	-827.81854	1092.86621	1655.59973	-853.96698	974.71808	1625.07385	-845.36725	823.43945	1662.85059	-897.47534	843.07825	1662.43237	-891.83179	758.17761	1294.41650	-637.21484	944.50531	1514.96899	-641.58948	957.58234	1323.25452	-795.00397	978.48279	1491.93958	-791.34668	979.34717	1243.97327	-741.82928	640.34668	1265.72681	-778.63440	479.03189	1271.67603	-879.53662	239.48192	1319.66760	-929.40497	74.59187	1363.75891	-974.01965	65.98417	1319.20544	-790.40552	38.81432	1588.80261	-626.13422	631.25421	1564.57983	-567.12000	519.07684	1564.25623	-534.80927	261.36078	1526.78210	-484.31293	80.24844	1476.69727	-508.51416	48.36855	1543.72266	-328.29245	77.18400	1387.07129	-721.50275	1687.91687															 
36	0.350	1332.50122	-610.06390	1646.87646	1464.06689	-613.90039	1637.21069	1328.96484	-743.85156	1592.71643	1458.44446	-745.97729	1588.58142	1382.22900	-747.74908	1438.43030	1394.93457	-801.50482	1112.48315	1394.09314	-641.55890	1355.71655	1390.09155	-612.02509	1178.97388	1451.17078	-833.99463	1273.86365	1227.43176	-680.31067	1391.61731	1151.61499	-643.74762	1195.33032	1135.25220	-617.24249	1086.05176	1109.75903	-514.39154	979.69769	1143.93652	-390.91470	937.86047	1117.11072	-435.31720	889.87878	1106.62585	-350.80023	860.44330	1550.23657	-699.25806	1391.06860	1630.71667	-793.28052	1212.32568	1640.64087	-819.53131	1091.47888	1656.44153	-846.34875	973.52094	1626.33057	-838.39117	822.06152	1663.75171	-890.64581	842.11011	1663.57227	-885.59601	757.18658	1294.57959	-627.98590	942.79456	1515.03430	-631.29279	956.05951	1324.24841	-785.81641	976.76434	1493.01355	-781.23889	977.66797	1243.93262	-734.60815	639.17255	1265.91699	-772.25458	477.94461	1271.49084	-876.37219	239.71098	1318.98364	-928.80072	75.61820	1362.90320	-973.85223	67.63967	1319.07349	-790.39874	38.80037	1590.22400	-616.54004	629.38885	1565.00684	-557.89374	516.94073	1564.43787	-519.20679	260.56482	1526.97925	-462.75604	80.94845	1476.92920	-485.80637	48.19334	1543.20776	-306.29645	82.81427	1388.27307	-712.02765	1686.28967															 
37	0.360	1333.80103	-600.43042	1645.56799	1465.45593	-604.32245	1635.90186	1330.20349	-734.06445	1591.06946	1459.76953	-736.30029	1586.99988	1383.42175	-738.32349	1437.03223	1395.80188	-791.43518	1110.84570	1395.32788	-631.44031	1354.36621	1390.94250	-601.94464	1177.51404	1452.03992	-823.89301	1271.98413	1228.54834	-670.16565	1390.26843	1152.65698	-633.02991	1193.98755	1136.24841	-605.79102	1084.97766	1110.90515	-501.04810	980.67535	1145.58130	-376.87573	941.54327	1118.50134	-420.04474	892.64923	1108.07446	-334.79596	865.26245	1551.45166	-689.44196	1389.25732	1631.52808	-784.10815	1210.72900	1641.56250	-810.87744	1090.05249	1657.44043	-838.20752	972.26788	1627.78125	-830.90411	820.65594	1664.78894	-883.18958	841.03436	1664.76648	-878.60040	756.11438	1294.85876	-618.86304	941.13159	1515.21423	-620.94049	954.54272	1325.40112	-776.60474	975.10712	1494.30908	-771.67114	976.31757	1244.46765	-726.82330	637.93921	1266.11511	-765.56403	476.82703	1271.06824	-873.22955	240.03334	1318.16785	-928.24780	76.83793	1361.98157	-973.53705	69.38704	1318.90942	-790.32898	38.73018	1592.09900	-605.84088	628.01233	1565.57263	-548.32019	514.86884	1564.76843	-504.31351	259.80737	1527.08130	-443.38269	81.56487	1476.93298	-465.70041	48.37374	1542.82312	-286.63412	86.99382	1389.57043	-702.43433	1684.76257															 
